<mxfile host="app.diagrams.net" agent="Mozilla/5.0 (Windows NT 10.0; Win64; x64) AppleWebKit/537.36 (KHTML, like Gecko) Chrome/131.0.0.0 Safari/537.36 Edg/131.0.0.0" version="24.7.8">
  <diagram name="第 1 页" id="HV_a7Qr-SpxjuYT4WYrv">
    <mxGraphModel dx="1011" dy="551" grid="1" gridSize="10" guides="1" tooltips="1" connect="1" arrows="1" fold="1" page="1" pageScale="1" pageWidth="1654" pageHeight="2336" math="0" shadow="0">
      <root>
        <mxCell id="0" />
        <mxCell id="1" parent="0" />
        <mxCell id="ijuhpkJDmBFNBa4i1Gnt-1" value="" style="endArrow=classic;html=1;rounded=0;strokeWidth=2;" edge="1" parent="1">
          <mxGeometry width="50" height="50" relative="1" as="geometry">
            <mxPoint x="80" y="340" as="sourcePoint" />
            <mxPoint x="160" y="340" as="targetPoint" />
          </mxGeometry>
        </mxCell>
        <mxCell id="ijuhpkJDmBFNBa4i1Gnt-2" value="&lt;font style=&quot;font-size: 13px;&quot;&gt;语音信号预处理&lt;/font&gt;" style="rounded=0;whiteSpace=wrap;html=1;strokeWidth=2;" vertex="1" parent="1">
          <mxGeometry x="160" y="316" width="100" height="50" as="geometry" />
        </mxCell>
        <mxCell id="ijuhpkJDmBFNBa4i1Gnt-3" value="" style="endArrow=classic;html=1;rounded=0;strokeWidth=2;" edge="1" parent="1">
          <mxGeometry width="50" height="50" relative="1" as="geometry">
            <mxPoint x="260" y="340" as="sourcePoint" />
            <mxPoint x="300" y="340" as="targetPoint" />
          </mxGeometry>
        </mxCell>
        <mxCell id="ijuhpkJDmBFNBa4i1Gnt-5" value="" style="endArrow=classic;html=1;rounded=0;strokeWidth=2;" edge="1" parent="1">
          <mxGeometry width="50" height="50" relative="1" as="geometry">
            <mxPoint x="390" y="340.58" as="sourcePoint" />
            <mxPoint x="450" y="341" as="targetPoint" />
          </mxGeometry>
        </mxCell>
        <mxCell id="ijuhpkJDmBFNBa4i1Gnt-6" value="&lt;span style=&quot;font-size: 14px;&quot;&gt;语音信号&lt;/span&gt;" style="text;html=1;align=center;verticalAlign=middle;whiteSpace=wrap;rounded=0;" vertex="1" parent="1">
          <mxGeometry x="80" y="300" width="70" height="40" as="geometry" />
        </mxCell>
        <mxCell id="ijuhpkJDmBFNBa4i1Gnt-7" value="&lt;font style=&quot;font-size: 13px;&quot;&gt;情感特征提取&lt;/font&gt;" style="rounded=0;whiteSpace=wrap;html=1;strokeWidth=2;" vertex="1" parent="1">
          <mxGeometry x="300" y="316" width="100" height="50" as="geometry" />
        </mxCell>
        <mxCell id="ijuhpkJDmBFNBa4i1Gnt-8" value="&lt;font style=&quot;font-size: 13px;&quot;&gt;特征处理&lt;/font&gt;" style="rounded=0;whiteSpace=wrap;html=1;strokeWidth=2;" vertex="1" parent="1">
          <mxGeometry x="450" y="316" width="100" height="50" as="geometry" />
        </mxCell>
        <mxCell id="ijuhpkJDmBFNBa4i1Gnt-9" value="" style="endArrow=none;html=1;rounded=0;exitX=1;exitY=0.5;exitDx=0;exitDy=0;strokeWidth=2;" edge="1" parent="1">
          <mxGeometry width="50" height="50" relative="1" as="geometry">
            <mxPoint x="550" y="341" as="sourcePoint" />
            <mxPoint x="580" y="341" as="targetPoint" />
          </mxGeometry>
        </mxCell>
        <mxCell id="ijuhpkJDmBFNBa4i1Gnt-11" value="" style="endArrow=classic;startArrow=classic;html=1;rounded=0;exitX=0;exitY=0.5;exitDx=0;exitDy=0;strokeWidth=2;" edge="1" parent="1" source="ijuhpkJDmBFNBa4i1Gnt-15">
          <mxGeometry width="50" height="50" relative="1" as="geometry">
            <mxPoint x="580" y="380" as="sourcePoint" />
            <mxPoint x="610" y="290" as="targetPoint" />
            <Array as="points">
              <mxPoint x="580" y="382" />
              <mxPoint x="580" y="370" />
              <mxPoint x="580" y="340" />
              <mxPoint x="580" y="290" />
            </Array>
          </mxGeometry>
        </mxCell>
        <mxCell id="ijuhpkJDmBFNBa4i1Gnt-17" style="edgeStyle=orthogonalEdgeStyle;rounded=0;orthogonalLoop=1;jettySize=auto;html=1;exitX=0.5;exitY=1;exitDx=0;exitDy=0;entryX=0.5;entryY=0;entryDx=0;entryDy=0;strokeWidth=2;" edge="1" parent="1" source="ijuhpkJDmBFNBa4i1Gnt-13" target="ijuhpkJDmBFNBa4i1Gnt-15">
          <mxGeometry relative="1" as="geometry" />
        </mxCell>
        <mxCell id="ijuhpkJDmBFNBa4i1Gnt-13" value="&lt;span style=&quot;font-size: 13px;&quot;&gt;分类模型&lt;/span&gt;" style="rounded=0;whiteSpace=wrap;html=1;strokeWidth=2;" vertex="1" parent="1">
          <mxGeometry x="610" y="266" width="80" height="44" as="geometry" />
        </mxCell>
        <mxCell id="ijuhpkJDmBFNBa4i1Gnt-18" style="edgeStyle=orthogonalEdgeStyle;rounded=0;orthogonalLoop=1;jettySize=auto;html=1;strokeWidth=2;" edge="1" parent="1" source="ijuhpkJDmBFNBa4i1Gnt-15">
          <mxGeometry relative="1" as="geometry">
            <mxPoint x="770" y="382" as="targetPoint" />
          </mxGeometry>
        </mxCell>
        <mxCell id="ijuhpkJDmBFNBa4i1Gnt-15" value="&lt;span style=&quot;font-size: 13px;&quot;&gt;匹配计算&lt;/span&gt;" style="rounded=0;whiteSpace=wrap;html=1;strokeWidth=2;" vertex="1" parent="1">
          <mxGeometry x="610" y="360" width="80" height="44" as="geometry" />
        </mxCell>
        <mxCell id="ijuhpkJDmBFNBa4i1Gnt-19" value="&lt;span style=&quot;color: rgb(0, 0, 0); font-family: Helvetica; font-size: 14px; font-style: normal; font-variant-ligatures: normal; font-variant-caps: normal; font-weight: 400; letter-spacing: normal; orphans: 2; text-align: center; text-indent: 0px; text-transform: none; widows: 2; word-spacing: 0px; -webkit-text-stroke-width: 0px; white-space: normal; background-color: rgb(251, 251, 251); text-decoration-thickness: initial; text-decoration-style: initial; text-decoration-color: initial; display: inline !important; float: none;&quot;&gt;分类结果&lt;/span&gt;" style="text;whiteSpace=wrap;html=1;" vertex="1" parent="1">
          <mxGeometry x="696" y="350" width="90" height="40" as="geometry" />
        </mxCell>
      </root>
    </mxGraphModel>
  </diagram>
</mxfile>
